# xmcd
#
# Track frame offsets: 
#        150
#        5751
#        22319
#        33532
#        46935
#        60174
#        75622
#        89317
#        102897
#        121122
#        135012
#        149842
#        167199
#        191548
#
# Disc length: 2758 seconds
#
# Revision: 0
# Processed by: cddbd v1.5.2PL0 Copyright (c) Steve Scherf et al.
# Submitted via: ExactAudioCopy v0.99pb5
#
DISCID=b40ac40e
DTITLE=Eric Bibb - The Haven
DYEAR=2011
DGENRE=Blues
TTITLE0=Invocation (On 7 Strings)
TTITLE1=Dream Baker
TTITLE2=People You Love
TTITLE3=It's Been Too Long
TTITLE4=River Blues
TTITLE5=My Baby Loves Me
TTITLE6=Shingle By Shingle
TTITLE7=Victory Voices
TTITLE8=Sweet Forever
TTITLE9=Where Corn Grows Blue
TTITLE10=Canada (Noah's Song)
TTITLE11=Ready
TTITLE12=Wayfaring Stranger
TTITLE13=The Light Was Worth The Candle
EXTD=
EXTT0=
EXTT1=
EXTT2=
EXTT3=
EXTT4=
EXTT5=
EXTT6=
EXTT7=
EXTT8=
EXTT9=
EXTT10=
EXTT11=
EXTT12=
EXTT13=
PLAYORDER=
